<?xml version="1.0" encoding="UTF-8" standalone="no"?>
<svg
   width="210mm"
   height="297mm"
   viewBox="0 0 210 297"
   version="1.1"
   id="svg1009"
   sodipodi:docname="cover.svg"
   inkscape:version="1.2.2 (b0a8486541, 2022-12-01)"
   xml:space="preserve"
   xmlns:inkscape="http://www.inkscape.org/namespaces/inkscape"
   xmlns:sodipodi="http://sodipodi.sourceforge.net/DTD/sodipodi-0.dtd"
   xmlns="http://www.w3.org/2000/svg"
   xmlns:svg="http://www.w3.org/2000/svg"
   xmlns:rdf="http://www.w3.org/1999/02/22-rdf-syntax-ns#"
   xmlns:cc="http://creativecommons.org/ns#"
   xmlns:dc="http://purl.org/dc/elements/1.1/"><defs
     id="defs1003">
	
	
	
	
	
	
	
	
	
	
	
	
	
	
	
	
	
	
	
	
	
	
	
	
	
	
	
	
	
	
</defs><sodipodi:namedview
     id="base"
     pagecolor="#ffffff"
     bordercolor="#666666"
     borderopacity="1.0"
     inkscape:pageopacity="0.0"
     inkscape:pageshadow="2"
     inkscape:zoom="0.44402954"
     inkscape:cx="202.68922"
     inkscape:cy="524.73986"
     inkscape:document-units="mm"
     inkscape:current-layer="layer1"
     inkscape:document-rotation="0"
     showgrid="false"
     inkscape:window-width="2560"
     inkscape:window-height="993"
     inkscape:window-x="0"
     inkscape:window-y="0"
     inkscape:window-maximized="1"
     inkscape:showpageshadow="2"
     inkscape:pagecheckerboard="0"
     inkscape:deskcolor="#d1d1d1" /><metadata
     id="metadata1006"><rdf:RDF><cc:Work
         rdf:about=""><dc:format>image/svg+xml</dc:format><dc:type
           rdf:resource="http://purl.org/dc/dcmitype/StillImage" /></cc:Work></rdf:RDF></metadata><g
     inkscape:label="Layer 1"
     inkscape:groupmode="layer"
     id="layer1"><text
       xml:space="preserve"
       style="font-style:normal;font-weight:normal;font-size:4.59886px;line-height:1.25;font-family:sans-serif;fill:#4d4d4d;fill-opacity:1;stroke:none;stroke-width:0.114972"
       x="152.16006"
       y="245.38925"
       id="text1658"><tspan
         sodipodi:role="line"
         id="tspan1656"
         x="152.16006"
         y="245.38925"
         style="font-style:normal;font-variant:normal;font-weight:normal;font-stretch:normal;font-family:'Noto Sans CJK SC';-inkscape-font-specification:'Noto Sans CJK SC';fill:#4d4d4d;stroke-width:0.114972">Common Hardware</tspan><tspan
         sodipodi:role="line"
         x="152.16006"
         y="251.61723"
         style="font-style:normal;font-variant:normal;font-weight:normal;font-stretch:normal;font-family:'Noto Sans CJK SC';-inkscape-font-specification:'Noto Sans CJK SC';fill:#4d4d4d;stroke-width:0.114972"
         id="tspan463">for Interfaces, </tspan><tspan
         sodipodi:role="line"
         x="152.16006"
         y="257.84521"
         style="font-style:normal;font-variant:normal;font-weight:normal;font-stretch:normal;font-family:'Noto Sans CJK SC';-inkscape-font-specification:'Noto Sans CJK SC';fill:#4d4d4d;stroke-width:0.114972"
         id="tspan465">Processors and Systems</tspan></text><rect
       style="opacity:1;fill:#4d4d4d;fill-opacity:1;stroke:#4d4d4d;stroke-width:0.214441;stroke-miterlimit:4;stroke-dasharray:none;stroke-opacity:1"
       id="rect1698"
       width="0.0075036972"
       height="19.529881"
       x="-149.50099"
       y="240.07402"
       transform="scale(-1,1)" /><text
       xml:space="preserve"
       style="font-style:normal;font-weight:normal;font-size:14.8539px;line-height:1.25;font-family:sans-serif;fill:#000000;fill-opacity:1;stroke:none;stroke-width:0.371349"
       x="12.759102"
       y="52.073627"
       id="text1658-7"><tspan
         sodipodi:role="line"
         id="tspan1656-3"
         x="12.759102"
         y="52.073627"
         style="font-style:normal;font-variant:normal;font-weight:normal;font-stretch:normal;font-family:'Noto Sans CJK SC';-inkscape-font-specification:'Noto Sans CJK SC';stroke-width:0.371349">T1</tspan></text><text
       xml:space="preserve"
       style="font-style:normal;font-weight:normal;font-size:6.98604px;line-height:1.25;font-family:sans-serif;fill:#666666;fill-opacity:1;stroke:none;stroke-width:0.174651"
       x="13.863506"
       y="64.567055"
       id="text1658-7-5"><tspan
         sodipodi:role="line"
         id="tspan1656-3-8"
         x="13.863506"
         y="64.567055"
         style="font-style:normal;font-variant:normal;font-weight:normal;font-stretch:normal;font-family:'Noto Sans CJK SC';-inkscape-font-specification:'Noto Sans CJK SC';fill:#666666;stroke-width:0.174651">The RISC-V Long Vector Machine Hardware Generator</tspan></text><g
       id="g273"
       transform="matrix(0.06870931,0,0,0.06870931,78.168343,238.23706)">
	<path
   class="st0"
   d="m 331.6,185.9 c -9.8,0 -18.3,6.8 -20.6,16.2 H 281.7 V 178.3 H 257.9 V 164 h 23.8 v -1 -22.7 -9.8 -20.6 -3.1 H 257.9 V 92.4 h 23.8 V 68.6 H 311 c 0.9,3.9 2.9,7.3 5.6,10 3.8,3.8 9.1,6.2 14.9,6.2 5.8,0 11.1,-2.4 14.9,-6.2 3.8,-3.8 6.2,-9.1 6.2,-14.9 0,-11.6 -9.5,-21.1 -21.1,-21.1 -9.8,0 -18.3,6.8 -20.6,16.2 H 281.6 V 35 H 257.8 V 7.5 H 94.8 V 35 H 76 71 v 3.9 19.9 9.8 19.3 4.5 h 23.8 v 14.3 H 76 71 v 23.8 H 41.7 C 39.4,121 30.9,114.3 21.1,114.3 9.5,114.2 0,123.7 0,135.4 c 0,5.8 2.4,11.1 6.2,14.9 3.8,3.8 9.1,6.2 14.9,6.2 5.8,0 11.1,-2.4 14.9,-6.2 2.7,-2.7 4.7,-6.2 5.6,-10 H 71 v 23.8 h 23.8 v 14.3 H 76 71 v 3.4 20.3 9.8 18.8 4.9 h 23.8 v 14.3 H 76 71 v 23.8 H 41.7 C 39.4,264.2 30.9,257.5 21.1,257.5 9.5,257.6 0,267.1 0,278.7 c 0,11.7 9.5,21.1 21.1,21.1 9.8,0 18.3,-6.8 20.6,-16.2 H 71 v 23.8 h 23.8 v 28 h 163.1 v -28 h 23.5 V 250 h -23.5 v -14.3 h 23.8 V 212 H 311 c 0.9,3.9 2.9,7.3 5.6,10 3.8,3.8 9.1,6.2 14.9,6.2 5.8,0 11.1,-2.4 14.9,-6.2 3.8,-3.8 6.2,-9.1 6.2,-14.9 0.1,-11.7 -9.4,-21.2 -21,-21.2"
   id="path213" />
	<path
   class="st1"
   d="m 463.8,136.2 c 0,9.1 -4.6,13.7 -13.7,13.7 h -46.7 c -8.9,0 -13.3,-4.6 -13.3,-13.7 V 13.8 C 390,4.6 394.5,0 403.3,0 H 450 c 9.1,0 13.7,4.6 13.7,13.8 v 35 H 441.4 V 19.2 h -29 v 111.4 h 29 V 99.1 h 22.3 v 37.1 z"
   id="path215" />
	<polygon
   class="st1"
   points="481.4,0 503.8,0 503.8,61.8 534.1,61.8 534.1,0 556.7,0 556.7,149.9 534.1,149.9 534.1,82.6 503.8,82.6 503.8,149.9 481.4,149.9 "
   id="polygon217" />
	<rect
   x="574.90002"
   y="0"
   class="st1"
   width="22.4"
   height="149.89999"
   id="rect219" />
	<path
   class="st1"
   d="m 688.1,81.6 c 0,9.3 -4.6,14 -13.7,14 h -36.3 v 54.3 H 615.7 V 0 h 58.7 c 9.1,0 13.7,4.6 13.7,13.8 z M 665.5,19.2 h -27.4 v 57.1 h 27.4 z"
   id="path221" />
	<path
   class="st1"
   d="m 775.8,136.2 c 0,9.1 -4.5,13.7 -13.6,13.7 h -45.1 c -9,0 -13.5,-4.6 -13.5,-13.7 V 100.5 H 726 V 131 h 27.4 V 101.6 L 708.5,59.1 C 705.2,56 703.6,52 703.6,47.1 V 13.8 C 703.6,4.6 708.1,0 717.1,0 h 45.1 c 9.1,0 13.6,4.5 13.6,13.6 V 47.1 H 753.4 V 18.9 H 726 V 46 l 44.9,42.3 c 3.3,3.1 4.9,7.1 4.9,12.2 z"
   id="path223" />
	<path
   class="st2"
   d="m 466,332.9 h -22.2 l -4.5,-28.4 h -28.1 l -4.5,28.4 h -22.1 v -0.4 l 29,-149.7 h 23.6 z m -29.9,-47.7 -10.9,-67.6 -11,67.6 z"
   id="path225" />
	<polygon
   class="st2"
   points="537.4,332.9 478.5,332.9 478.5,183 500.9,183 500.9,312.9 537.4,312.9 "
   id="polygon227" />
	<polygon
   class="st2"
   points="609.6,332.9 550.7,332.9 550.7,183 573.1,183 573.1,312.9 609.6,312.9 "
   id="polygon229" />
	<rect
   x="623.29999"
   y="183"
   class="st2"
   width="22.4"
   height="149.89999"
   id="rect231" />
	<path
   class="st2"
   d="m 740,332.9 h -22.2 l -4.5,-28.4 h -28.1 l -4.5,28.4 h -22.1 v -0.4 l 29,-149.7 h 23.6 z m -29.9,-47.7 -10.9,-67.6 -11,67.6 z"
   id="path233" />
	<path
   class="st2"
   d="M 828.5,332.9 H 808.9 L 773,238.6 c 1,4.6 1.4,8.2 1.4,10.8 v 83.5 H 752.6 V 183 h 19.6 l 35.9,92.4 c -1,-4.6 -1.4,-8.2 -1.4,-10.8 V 183 h 21.8 z"
   id="path235"
   style="fill:#2b2e7d;fill-opacity:1" />
	<path
   class="st2"
   d="m 920.2,319.2 c 0,9.1 -4.6,13.7 -13.7,13.7 h -46.7 c -8.9,0 -13.3,-4.6 -13.3,-13.7 V 196.8 c 0,-9.2 4.4,-13.8 13.3,-13.8 h 46.7 c 9.1,0 13.7,4.6 13.7,13.8 v 35 h -22.3 v -29.6 h -29 v 111.4 h 29 v -31.5 h 22.3 z"
   id="path237" />
	<polygon
   class="st2"
   points="960.3,246.6 994,246.6 994,266.1 960.3,266.1 960.3,313.1 1000,313.1 1000,332.9 937.9,332.9 937.9,183 999.4,183 999.4,202.9 960.3,202.9 "
   id="polygon239" />
	<path
   class="st3"
   d="m 331.6,75 c 3.1,0 6,-1.3 8,-3.3 2,-2.1 3.3,-4.9 3.3,-8 0,-3.1 -1.3,-6 -3.3,-8 -2,-2 -4.9,-3.3 -8,-3.3 -3.1,0 -6,1.3 -8,3.3 -2,2 -3.3,4.9 -3.3,8 0,3.1 1.3,6 3.3,8 2,2 4.9,3.3 8,3.3"
   id="path241" />
	<path
   class="st3"
   d="m 331.6,218.4 c 3.1,0 6,-1.3 8,-3.3 2,-2.1 3.3,-4.9 3.3,-8 0,-3.1 -1.3,-6 -3.3,-8 -2,-2 -4.9,-3.3 -8,-3.3 -3.1,0 -6,1.3 -8,3.3 -2,2 -3.3,4.9 -3.3,8 0,3.1 1.3,6 3.3,8 2,2 4.9,3.3 8,3.3"
   id="path243" />
	<rect
   x="234.2"
   y="44.900002"
   class="st4"
   width="37.700001"
   height="37.700001"
   id="rect245" />
	<rect
   x="80.900002"
   y="116.5"
   class="st4"
   width="37.700001"
   height="37.700001"
   id="rect247" />
	<rect
   x="80.900002"
   y="188.2"
   class="st0"
   width="37.700001"
   height="37.700001"
   id="rect249" />
	<rect
   x="80.900002"
   y="259.89999"
   class="st4"
   width="37.700001"
   height="37.700001"
   id="rect251" />
	<rect
   x="234.2"
   y="188.2"
   class="st4"
   width="37.700001"
   height="37.700001"
   id="rect253" />
	<polygon
   class="st3"
   points="229.3,175.8 248.1,175.8 248.1,161.5 224.3,161.5 224.3,104.1 229.3,104.1 248.1,104.1 248.1,89.8 224.3,89.8 224.3,32.4 229.3,32.4 248.1,32.4 248.1,14.7 104.6,14.7 104.6,32.4 128.4,32.4 128.4,89.8 104.6,89.8 104.6,104.1 128.4,104.1 128.4,161.5 104.6,161.5 104.6,175.8 128.4,175.8 128.4,233.2 104.6,233.2 104.6,247.5 128.4,247.5 128.4,304.8 104.6,304.8 104.6,323 248.1,323 248.1,304.8 224.3,304.8 224.3,247.5 229.3,247.5 248.1,247.5 248.1,233.2 224.3,233.2 224.3,175.8 "
   id="polygon255" />
	<path
   class="st1"
   d="m 323.6,55.7 c 2,-2 4.9,-3.3 8,-3.3 3.1,0 6,1.3 8,3.3 2,2 3.3,4.9 3.3,8 0,3.1 -1.3,5.9 -3.3,8 -2,2 -4.9,3.3 -8,3.3 -3.1,0 -6,-1.3 -8,-3.3 -2,-2 -3.3,-4.9 -3.3,-8 0,-3.1 1.2,-6 3.3,-8"
   id="path257" />
	<rect
   x="234.2"
   y="44.900002"
   class="st4"
   width="37.700001"
   height="37.700001"
   id="rect259" />
	<rect
   x="80.900002"
   y="116.5"
   class="st4"
   width="37.700001"
   height="37.700001"
   id="rect261" />
	<rect
   x="80.900002"
   y="188.2"
   class="st0"
   width="37.700001"
   height="37.700001"
   id="rect263" />
	<rect
   x="80.900002"
   y="259.89999"
   class="st4"
   width="37.700001"
   height="37.700001"
   id="rect265" />
	<polygon
   class="st1"
   points="104.6,233.2 128.4,233.2 128.4,175.8 104.6,175.8 104.6,161.5 128.4,161.5 128.4,104.1 104.6,104.1 104.6,89.8 128.4,89.8 128.4,32.4 104.6,32.4 104.6,14.7 248.1,14.7 248.1,32.4 229.3,32.4 224.3,32.4 224.3,89.8 248.1,89.8 248.1,104.1 229.3,104.1 224.3,104.1 224.3,161.5 248.1,161.5 248.1,175.8 229.3,175.8 224.3,175.8 224.3,233.2 248.1,233.2 248.1,247.5 229.3,247.5 224.3,247.5 224.3,304.8 248.1,304.8 248.1,323 104.6,323 104.6,304.8 128.4,304.8 128.4,247.5 104.6,247.5 "
   id="polygon267" />
	<rect
   x="234.2"
   y="188.2"
   class="st4"
   width="37.700001"
   height="37.700001"
   id="rect269" />
	<path
   class="st1"
   d="m 339.6,215.1 c -2,2 -4.9,3.3 -8,3.3 -3.1,0 -6,-1.3 -8,-3.3 -2,-2 -3.3,-4.9 -3.3,-8 0,-3.1 1.3,-6 3.3,-8 2,-2 4.9,-3.3 8,-3.3 3.1,0 6,1.3 8,3.3 2,2 3.3,4.9 3.3,8 0,3.1 -1.3,5.9 -3.3,8"
   id="path271" />
</g><rect
       style="opacity:1;fill:#2b2e7d;fill-opacity:1;stroke:#2b2e7d;stroke-width:1.61757;stroke-miterlimit:4;stroke-dasharray:none;stroke-opacity:1"
       id="rect837"
       width="0.38243318"
       height="21.803802"
       x="0.8087818"
       y="41.720905" /></g><style
     type="text/css"
     id="style211">
	.st0{fill:#2B2E7D;}
	.st1{fill:#10CFC9;}
	.st2{fill:#1226AA;}
	.st3{fill:#51C2BE;}
	.st4{fill:#FFFFFF;}
</style></svg>
